<?xml version="1.0" ?>
<svg height="40" viewBox="0 0 40 40" width="40" xmlns="http://www.w3.org/2000/svg">
  <path d="M9.0667,11.8206C10.1867,11.8206 11.1123,12.6861 11.1941,13.7745L11.2,13.9314L11.2,27.3351C11.2,28.5465 12.0783,29.4683 13.2749,29.5461L13.44,29.5515L26.88,29.5515C28,29.5515 28.9256,30.4169 29.0075,31.5053L29.0133,31.6623L29.0133,38.628C29.0133,39.3206 28.4508,39.9204 27.7653,39.9927L27.6267,40L1.3867,40C0.6867,40 0.0804,39.4434 0.0074,38.7651L0,38.628L0,13.1926C0,12.5 0.5625,11.9001 1.248,11.8279L1.3867,11.8206L9.0667,11.8206ZM38.6133,0C39.3133,0 39.9196,0.5566 39.9926,1.2349L40,1.372L40,27.2296C40,27.9222 39.4375,28.522 38.752,28.5943L38.6133,28.6016L32.64,28.6016C31.52,28.6016 30.5944,27.7361 30.5125,26.6477L30.5067,26.4908L30.5067,22.2691C30.5067,21.1609 29.632,20.2451 28.5319,20.1641L28.3733,20.1583L21.8667,20.1583C20.7467,20.1583 19.821,19.2928 19.7392,18.2044L19.7333,18.0475L19.7333,11.504C19.7333,10.3958 18.8586,9.4799 17.7586,9.399L17.6,9.3931L13.3333,9.3931C12.2133,9.3931 11.2877,8.5277 11.2059,7.4393L11.2,7.2823L11.2,1.372C11.2,0.6794 11.7625,0.0796 12.448,0.0073L12.5867,0L38.6133,0Z" fill="#0055ff" stroke="#00000000" stroke-width="1"/>
</svg>
