<?xml version="1.0" ?>
<svg height="28" viewBox="0 0 28 28" width="28" xmlns="http://www.w3.org/2000/svg">
  <path d="M20.2078,15.2771C20.6453,15.2771 21,15.6317 21,16.0693C21,16.4189 20.7721,16.7209 20.4239,16.8274L20.3159,16.8533L20.2078,16.8615L9.7045,16.8615L12.4909,19.6476C12.7085,19.8651 12.7752,20.1814 12.6716,20.4733L12.6247,20.5814L12.5616,20.6857L12.4909,20.768C12.2462,21.0127 11.8766,21.0665 11.5572,20.9018L11.4528,20.8387L11.3706,20.768L7.232,16.6295C6.799,16.1964 7.0052,15.4771 7.5845,15.308L7.6905,15.284L7.7922,15.2771L20.2078,15.2771ZM15.5091,7.2321C15.7538,6.9873 16.1234,6.9335 16.423,7.0832L16.52,7.1407L16.6294,7.2321L20.768,11.3706C21.201,11.8036 20.9948,12.5229 20.4155,12.692L20.3095,12.716L20.2078,12.723L7.7922,12.723C7.3547,12.723 7,12.3683 7,11.9308C7,11.5812 7.2279,11.2792 7.5761,11.1727L7.6841,11.1467L7.7922,11.1385L18.2955,11.1385L15.5091,8.3524C15.2915,8.1349 15.2248,7.8187 15.3284,7.5268L15.3753,7.4187L15.4384,7.3143L15.5091,7.2321Z" fill="#ffffff" stroke="#00000000" stroke-width="1"/>
</svg>
